<mxfile host="app.diagrams.net" agent="Mozilla/5.0 (Windows NT 10.0; Win64; x64) AppleWebKit/537.36 (KHTML, like Gecko) Chrome/135.0.0.0 Safari/537.36 Edg/135.0.0.0" version="26.2.14">
  <diagram name="Page-1" id="o3Bn1y6jxGDED7frqozC">
    <mxGraphModel dx="988" dy="604" grid="1" gridSize="10" guides="1" tooltips="1" connect="1" arrows="1" fold="1" page="1" pageScale="1" pageWidth="850" pageHeight="1100" math="0" shadow="0">
      <root>
        <mxCell id="0" />
        <mxCell id="1" parent="0" />
        <mxCell id="qGtngPjAGswrNh9nRBlN-7" style="edgeStyle=orthogonalEdgeStyle;rounded=0;orthogonalLoop=1;jettySize=auto;html=1;entryX=0;entryY=0.5;entryDx=0;entryDy=0;" edge="1" parent="1" source="qGtngPjAGswrNh9nRBlN-1" target="qGtngPjAGswrNh9nRBlN-2">
          <mxGeometry relative="1" as="geometry" />
        </mxCell>
        <mxCell id="qGtngPjAGswrNh9nRBlN-8" style="edgeStyle=orthogonalEdgeStyle;rounded=0;orthogonalLoop=1;jettySize=auto;html=1;entryX=0;entryY=0.5;entryDx=0;entryDy=0;" edge="1" parent="1" source="qGtngPjAGswrNh9nRBlN-1" target="qGtngPjAGswrNh9nRBlN-4">
          <mxGeometry relative="1" as="geometry" />
        </mxCell>
        <mxCell id="qGtngPjAGswrNh9nRBlN-9" style="edgeStyle=orthogonalEdgeStyle;rounded=0;orthogonalLoop=1;jettySize=auto;html=1;entryX=0;entryY=0.5;entryDx=0;entryDy=0;" edge="1" parent="1" source="qGtngPjAGswrNh9nRBlN-1" target="qGtngPjAGswrNh9nRBlN-3">
          <mxGeometry relative="1" as="geometry" />
        </mxCell>
        <mxCell id="qGtngPjAGswrNh9nRBlN-10" style="edgeStyle=orthogonalEdgeStyle;rounded=0;orthogonalLoop=1;jettySize=auto;html=1;entryX=0;entryY=0.5;entryDx=0;entryDy=0;" edge="1" parent="1" source="qGtngPjAGswrNh9nRBlN-1" target="qGtngPjAGswrNh9nRBlN-5">
          <mxGeometry relative="1" as="geometry" />
        </mxCell>
        <mxCell id="qGtngPjAGswrNh9nRBlN-11" style="edgeStyle=orthogonalEdgeStyle;rounded=0;orthogonalLoop=1;jettySize=auto;html=1;entryX=0;entryY=0.5;entryDx=0;entryDy=0;" edge="1" parent="1" source="qGtngPjAGswrNh9nRBlN-1" target="qGtngPjAGswrNh9nRBlN-6">
          <mxGeometry relative="1" as="geometry" />
        </mxCell>
        <mxCell id="qGtngPjAGswrNh9nRBlN-1" value="Utility" style="rounded=0;whiteSpace=wrap;html=1;" vertex="1" parent="1">
          <mxGeometry x="40" y="350" width="120" height="60" as="geometry" />
        </mxCell>
        <mxCell id="qGtngPjAGswrNh9nRBlN-2" value="Performance" style="rounded=0;whiteSpace=wrap;html=1;" vertex="1" parent="1">
          <mxGeometry x="260" y="70" width="120" height="60" as="geometry" />
        </mxCell>
        <mxCell id="qGtngPjAGswrNh9nRBlN-3" value="Modifiability" style="rounded=0;whiteSpace=wrap;html=1;" vertex="1" parent="1">
          <mxGeometry x="260" y="350" width="120" height="60" as="geometry" />
        </mxCell>
        <mxCell id="qGtngPjAGswrNh9nRBlN-4" value="Availability" style="rounded=0;whiteSpace=wrap;html=1;" vertex="1" parent="1">
          <mxGeometry x="260" y="210" width="120" height="60" as="geometry" />
        </mxCell>
        <mxCell id="qGtngPjAGswrNh9nRBlN-5" value="Usability" style="rounded=0;whiteSpace=wrap;html=1;" vertex="1" parent="1">
          <mxGeometry x="260" y="490" width="120" height="60" as="geometry" />
        </mxCell>
        <mxCell id="qGtngPjAGswrNh9nRBlN-6" value="Compliance" style="rounded=0;whiteSpace=wrap;html=1;" vertex="1" parent="1">
          <mxGeometry x="260" y="630" width="120" height="60" as="geometry" />
        </mxCell>
        <mxCell id="qGtngPjAGswrNh9nRBlN-12" value="Ensuring UI responsiveness" style="rounded=0;whiteSpace=wrap;html=1;" vertex="1" parent="1">
          <mxGeometry x="440" y="35" width="120" height="60" as="geometry" />
        </mxCell>
        <mxCell id="qGtngPjAGswrNh9nRBlN-13" value="Notifications" style="rounded=0;whiteSpace=wrap;html=1;" vertex="1" parent="1">
          <mxGeometry x="440" y="105" width="120" height="60" as="geometry" />
        </mxCell>
      </root>
    </mxGraphModel>
  </diagram>
</mxfile>
